<svg xmlns="http://www.w3.org/2000/svg" xmlns:xlink="http://www.w3.org/1999/xlink" width="500" zoomAndPan="magnify" viewBox="0 0 375 374.999991" height="500" preserveAspectRatio="xMidYMid meet" version="1.0"><defs><filter x="0%" y="0%" width="100%" height="100%" id="56a58bae32"><feColorMatrix values="0 0 0 0 1 0 0 0 0 1 0 0 0 0 1 0 0 0 1 0" color-interpolation-filters="sRGB"/></filter><g/><clipPath id="572bb8d20b"><path d="M 149 89 L 307 89 L 307 233 L 149 233 Z M 149 89 " clip-rule="nonzero"/></clipPath><clipPath id="e1880afb3e"><path d="M 174.933594 89.695312 L 306.859375 202.675781 L 281.652344 232.113281 L 149.726562 119.132812 Z M 174.933594 89.695312 " clip-rule="nonzero"/></clipPath><clipPath id="7c42954a15"><path d="M 0.519531 0.519531 L 157.960938 0.519531 L 157.960938 143.320312 L 0.519531 143.320312 Z M 0.519531 0.519531 " clip-rule="nonzero"/></clipPath><clipPath id="5438e0885f"><path d="M 25.933594 0.695312 L 157.859375 113.675781 L 132.652344 143.113281 L 0.726562 30.132812 Z M 25.933594 0.695312 " clip-rule="nonzero"/></clipPath><clipPath id="3161880642"><path d="M 25.933594 0.695312 L 157.820312 113.644531 L 132.613281 143.082031 L 0.726562 30.132812 Z M 25.933594 0.695312 " clip-rule="nonzero"/></clipPath><clipPath id="65e8645f04"><path d="M 25.933594 0.695312 L 157.859375 113.675781 L 132.652344 143.113281 L 0.726562 30.132812 Z M 25.933594 0.695312 " clip-rule="nonzero"/></clipPath><linearGradient x1="573.66803" gradientTransform="matrix(0.114984, 0.0984731, -0.0984731, 0.114984, 25.935091, 0.695299)" y1="-566.6785" x2="573.66803" gradientUnits="userSpaceOnUse" y2="822.678443" id="3de392e0bb"><stop stop-opacity="1" stop-color="rgb(53.329468%, 53.329468%, 53.329468%)" offset="0"/><stop stop-opacity="1" stop-color="rgb(53.329468%, 53.329468%, 53.329468%)" offset="0.25"/><stop stop-opacity="1" stop-color="rgb(53.329468%, 53.329468%, 53.329468%)" offset="0.375"/><stop stop-opacity="1" stop-color="rgb(53.329468%, 53.329468%, 53.329468%)" offset="0.40625"/><stop stop-opacity="1" stop-color="rgb(52.432251%, 52.432251%, 52.432251%)" offset="0.410156"/><stop stop-opacity="1" stop-color="rgb(51.53656%, 51.53656%, 51.53656%)" offset="0.414062"/><stop stop-opacity="1" stop-color="rgb(50.405884%, 50.405884%, 50.405884%)" offset="0.417969"/><stop stop-opacity="1" stop-color="rgb(49.276733%, 49.276733%, 49.276733%)" offset="0.421875"/><stop stop-opacity="1" stop-color="rgb(48.146057%, 48.146057%, 48.146057%)" offset="0.425781"/><stop stop-opacity="1" stop-color="rgb(47.015381%, 47.015381%, 47.015381%)" offset="0.429688"/><stop stop-opacity="1" stop-color="rgb(45.884705%, 45.884705%, 45.884705%)" offset="0.433594"/><stop stop-opacity="1" stop-color="rgb(44.754028%, 44.754028%, 44.754028%)" offset="0.4375"/><stop stop-opacity="1" stop-color="rgb(43.623352%, 43.623352%, 43.623352%)" offset="0.441406"/><stop stop-opacity="1" stop-color="rgb(42.492676%, 42.492676%, 42.492676%)" offset="0.445312"/><stop stop-opacity="1" stop-color="rgb(41.362%, 41.362%, 41.362%)" offset="0.449219"/><stop stop-opacity="1" stop-color="rgb(40.231323%, 40.231323%, 40.231323%)" offset="0.453125"/><stop stop-opacity="1" stop-color="rgb(39.100647%, 39.100647%, 39.100647%)" offset="0.457031"/><stop stop-opacity="1" stop-color="rgb(37.969971%, 37.969971%, 37.969971%)" offset="0.460938"/><stop stop-opacity="1" stop-color="rgb(36.839294%, 36.839294%, 36.839294%)" offset="0.464844"/><stop stop-opacity="1" stop-color="rgb(35.708618%, 35.708618%, 35.708618%)" offset="0.46875"/><stop stop-opacity="1" stop-color="rgb(34.577942%, 34.577942%, 34.577942%)" offset="0.472656"/><stop stop-opacity="1" stop-color="rgb(33.447266%, 33.447266%, 33.447266%)" offset="0.476562"/><stop stop-opacity="1" stop-color="rgb(32.316589%, 32.316589%, 32.316589%)" offset="0.480469"/><stop stop-opacity="1" stop-color="rgb(31.185913%, 31.185913%, 31.185913%)" offset="0.484375"/><stop stop-opacity="1" stop-color="rgb(30.055237%, 30.055237%, 30.055237%)" offset="0.488281"/><stop stop-opacity="1" stop-color="rgb(28.926086%, 28.926086%, 28.926086%)" offset="0.492188"/><stop stop-opacity="1" stop-color="rgb(27.79541%, 27.79541%, 27.79541%)" offset="0.496094"/><stop stop-opacity="1" stop-color="rgb(26.664734%, 26.664734%, 26.664734%)" offset="0.5"/><stop stop-opacity="1" stop-color="rgb(25.534058%, 25.534058%, 25.534058%)" offset="0.503906"/><stop stop-opacity="1" stop-color="rgb(24.403381%, 24.403381%, 24.403381%)" offset="0.507812"/><stop stop-opacity="1" stop-color="rgb(23.272705%, 23.272705%, 23.272705%)" offset="0.511719"/><stop stop-opacity="1" stop-color="rgb(22.142029%, 22.142029%, 22.142029%)" offset="0.515625"/><stop stop-opacity="1" stop-color="rgb(21.011353%, 21.011353%, 21.011353%)" offset="0.519531"/><stop stop-opacity="1" stop-color="rgb(19.880676%, 19.880676%, 19.880676%)" offset="0.523438"/><stop stop-opacity="1" stop-color="rgb(18.75%, 18.75%, 18.75%)" offset="0.527344"/><stop stop-opacity="1" stop-color="rgb(17.619324%, 17.619324%, 17.619324%)" offset="0.53125"/><stop stop-opacity="1" stop-color="rgb(16.488647%, 16.488647%, 16.488647%)" offset="0.535156"/><stop stop-opacity="1" stop-color="rgb(15.357971%, 15.357971%, 15.357971%)" offset="0.539062"/><stop stop-opacity="1" stop-color="rgb(14.227295%, 14.227295%, 14.227295%)" offset="0.542969"/><stop stop-opacity="1" stop-color="rgb(13.096619%, 13.096619%, 13.096619%)" offset="0.546875"/><stop stop-opacity="1" stop-color="rgb(11.965942%, 11.965942%, 11.965942%)" offset="0.550781"/><stop stop-opacity="1" stop-color="rgb(10.835266%, 10.835266%, 10.835266%)" offset="0.554688"/><stop stop-opacity="1" stop-color="rgb(9.70459%, 9.70459%, 9.70459%)" offset="0.558594"/><stop stop-opacity="1" stop-color="rgb(8.575439%, 8.575439%, 8.575439%)" offset="0.5625"/><stop stop-opacity="1" stop-color="rgb(7.444763%, 7.444763%, 7.444763%)" offset="0.566406"/><stop stop-opacity="1" stop-color="rgb(6.314087%, 6.314087%, 6.314087%)" offset="0.570312"/><stop stop-opacity="1" stop-color="rgb(5.183411%, 5.183411%, 5.183411%)" offset="0.574219"/><stop stop-opacity="1" stop-color="rgb(4.052734%, 4.052734%, 4.052734%)" offset="0.578125"/><stop stop-opacity="1" stop-color="rgb(2.922058%, 2.922058%, 2.922058%)" offset="0.582031"/><stop stop-opacity="1" stop-color="rgb(1.791382%, 1.791382%, 1.791382%)" offset="0.585938"/><stop stop-opacity="1" stop-color="rgb(0.895691%, 0.895691%, 0.895691%)" offset="0.589844"/><stop stop-opacity="1" stop-color="rgb(0%, 0%, 0%)" offset="0.59375"/><stop stop-opacity="1" stop-color="rgb(0%, 0%, 0%)" offset="0.625"/><stop stop-opacity="1" stop-color="rgb(0%, 0%, 0%)" offset="0.75"/><stop stop-opacity="1" stop-color="rgb(0%, 0%, 0%)" offset="1"/></linearGradient><clipPath id="ae48ca6423"><rect x="0" width="158" y="0" height="144"/></clipPath><mask id="32163f6dd8"><g filter="url(#56a58bae32)"><rect x="-37.5" width="450" fill="#000000" y="-37.499999" height="449.999989" fill-opacity="0.58"/></g></mask><clipPath id="76b67e014f"><path d="M 0.6875 0.359375 L 218.261719 0.359375 L 218.261719 39.109375 L 0.6875 39.109375 Z M 0.6875 0.359375 " clip-rule="nonzero"/></clipPath><clipPath id="713e05024c"><path d="M 0.6875 0.359375 L 218.214844 0.359375 L 218.214844 39.109375 L 0.6875 39.109375 Z M 0.6875 0.359375 " clip-rule="nonzero"/></clipPath><linearGradient x1="0.0012096" gradientTransform="matrix(0.151377, 0.000000000000000001, -0.000000000000000001, 0.151377, 0.687055, 0.358029)" y1="128" x2="1437.001225" gradientUnits="userSpaceOnUse" y2="128" id="117aa8b8e3"><stop stop-opacity="1" stop-color="rgb(0%, 0%, 0%)" offset="0"/><stop stop-opacity="1" stop-color="rgb(0.389099%, 0.389099%, 0.389099%)" offset="0.00390625"/><stop stop-opacity="1" stop-color="rgb(0.779724%, 0.779724%, 0.779724%)" offset="0.0078125"/><stop stop-opacity="1" stop-color="rgb(1.170349%, 1.170349%, 1.170349%)" offset="0.0117188"/><stop stop-opacity="1" stop-color="rgb(1.560974%, 1.560974%, 1.560974%)" offset="0.015625"/><stop stop-opacity="1" stop-color="rgb(1.951599%, 1.951599%, 1.951599%)" offset="0.0195313"/><stop stop-opacity="1" stop-color="rgb(2.342224%, 2.342224%, 2.342224%)" offset="0.0234375"/><stop stop-opacity="1" stop-color="rgb(2.732849%, 2.732849%, 2.732849%)" offset="0.0273438"/><stop stop-opacity="1" stop-color="rgb(3.123474%, 3.123474%, 3.123474%)" offset="0.03125"/><stop stop-opacity="1" stop-color="rgb(3.514099%, 3.514099%, 3.514099%)" offset="0.0351562"/><stop stop-opacity="1" stop-color="rgb(3.904724%, 3.904724%, 3.904724%)" offset="0.0390625"/><stop stop-opacity="1" stop-color="rgb(4.295349%, 4.295349%, 4.295349%)" offset="0.0429688"/><stop stop-opacity="1" stop-color="rgb(4.685974%, 4.685974%, 4.685974%)" offset="0.046875"/><stop stop-opacity="1" stop-color="rgb(5.076599%, 5.076599%, 5.076599%)" offset="0.0507812"/><stop stop-opacity="1" stop-color="rgb(5.467224%, 5.467224%, 5.467224%)" offset="0.0546875"/><stop stop-opacity="1" stop-color="rgb(5.857849%, 5.857849%, 5.857849%)" offset="0.0585938"/><stop stop-opacity="1" stop-color="rgb(6.248474%, 6.248474%, 6.248474%)" offset="0.0625"/><stop stop-opacity="1" stop-color="rgb(6.639099%, 6.639099%, 6.639099%)" offset="0.0664063"/><stop stop-opacity="1" stop-color="rgb(7.029724%, 7.029724%, 7.029724%)" offset="0.0703125"/><stop stop-opacity="1" stop-color="rgb(7.418823%, 7.418823%, 7.418823%)" offset="0.0742188"/><stop stop-opacity="1" stop-color="rgb(7.809448%, 7.809448%, 7.809448%)" offset="0.078125"/><stop stop-opacity="1" stop-color="rgb(8.200073%, 8.200073%, 8.200073%)" offset="0.0820312"/><stop stop-opacity="1" stop-color="rgb(8.590698%, 8.590698%, 8.590698%)" offset="0.0859375"/><stop stop-opacity="1" stop-color="rgb(8.981323%, 8.981323%, 8.981323%)" offset="0.0898438"/><stop stop-opacity="1" stop-color="rgb(9.371948%, 9.371948%, 9.371948%)" offset="0.09375"/><stop stop-opacity="1" stop-color="rgb(9.762573%, 9.762573%, 9.762573%)" offset="0.0976562"/><stop stop-opacity="1" stop-color="rgb(10.153198%, 10.153198%, 10.153198%)" offset="0.101562"/><stop stop-opacity="1" stop-color="rgb(10.543823%, 10.543823%, 10.543823%)" offset="0.105469"/><stop stop-opacity="1" stop-color="rgb(10.934448%, 10.934448%, 10.934448%)" offset="0.109375"/><stop stop-opacity="1" stop-color="rgb(11.325073%, 11.325073%, 11.325073%)" offset="0.113281"/><stop stop-opacity="1" stop-color="rgb(11.715698%, 11.715698%, 11.715698%)" offset="0.117188"/><stop stop-opacity="1" stop-color="rgb(12.106323%, 12.106323%, 12.106323%)" offset="0.121094"/><stop stop-opacity="1" stop-color="rgb(12.496948%, 12.496948%, 12.496948%)" offset="0.125"/><stop stop-opacity="1" stop-color="rgb(12.887573%, 12.887573%, 12.887573%)" offset="0.128906"/><stop stop-opacity="1" stop-color="rgb(13.278198%, 13.278198%, 13.278198%)" offset="0.132813"/><stop stop-opacity="1" stop-color="rgb(13.668823%, 13.668823%, 13.668823%)" offset="0.136719"/><stop stop-opacity="1" stop-color="rgb(14.059448%, 14.059448%, 14.059448%)" offset="0.140625"/><stop stop-opacity="1" stop-color="rgb(14.448547%, 14.448547%, 14.448547%)" offset="0.144531"/><stop stop-opacity="1" stop-color="rgb(14.839172%, 14.839172%, 14.839172%)" offset="0.148438"/><stop stop-opacity="1" stop-color="rgb(15.229797%, 15.229797%, 15.229797%)" offset="0.152344"/><stop stop-opacity="1" stop-color="rgb(15.620422%, 15.620422%, 15.620422%)" offset="0.15625"/><stop stop-opacity="1" stop-color="rgb(16.011047%, 16.011047%, 16.011047%)" offset="0.160156"/><stop stop-opacity="1" stop-color="rgb(16.401672%, 16.401672%, 16.401672%)" offset="0.164062"/><stop stop-opacity="1" stop-color="rgb(16.792297%, 16.792297%, 16.792297%)" offset="0.167969"/><stop stop-opacity="1" stop-color="rgb(17.182922%, 17.182922%, 17.182922%)" offset="0.171875"/><stop stop-opacity="1" stop-color="rgb(17.573547%, 17.573547%, 17.573547%)" offset="0.175781"/><stop stop-opacity="1" stop-color="rgb(17.964172%, 17.964172%, 17.964172%)" offset="0.179688"/><stop stop-opacity="1" stop-color="rgb(18.354797%, 18.354797%, 18.354797%)" offset="0.183594"/><stop stop-opacity="1" stop-color="rgb(18.745422%, 18.745422%, 18.745422%)" offset="0.1875"/><stop stop-opacity="1" stop-color="rgb(19.136047%, 19.136047%, 19.136047%)" offset="0.191406"/><stop stop-opacity="1" stop-color="rgb(19.526672%, 19.526672%, 19.526672%)" offset="0.195312"/><stop stop-opacity="1" stop-color="rgb(19.917297%, 19.917297%, 19.917297%)" offset="0.199219"/><stop stop-opacity="1" stop-color="rgb(20.307922%, 20.307922%, 20.307922%)" offset="0.203125"/><stop stop-opacity="1" stop-color="rgb(20.698547%, 20.698547%, 20.698547%)" offset="0.207031"/><stop stop-opacity="1" stop-color="rgb(21.089172%, 21.089172%, 21.089172%)" offset="0.210938"/><stop stop-opacity="1" stop-color="rgb(21.478271%, 21.478271%, 21.478271%)" offset="0.214844"/><stop stop-opacity="1" stop-color="rgb(21.868896%, 21.868896%, 21.868896%)" offset="0.21875"/><stop stop-opacity="1" stop-color="rgb(22.259521%, 22.259521%, 22.259521%)" offset="0.222656"/><stop stop-opacity="1" stop-color="rgb(22.650146%, 22.650146%, 22.650146%)" offset="0.226563"/><stop stop-opacity="1" stop-color="rgb(23.040771%, 23.040771%, 23.040771%)" offset="0.230469"/><stop stop-opacity="1" stop-color="rgb(23.431396%, 23.431396%, 23.431396%)" offset="0.234375"/><stop stop-opacity="1" stop-color="rgb(23.822021%, 23.822021%, 23.822021%)" offset="0.238281"/><stop stop-opacity="1" stop-color="rgb(24.212646%, 24.212646%, 24.212646%)" offset="0.242188"/><stop stop-opacity="1" stop-color="rgb(24.603271%, 24.603271%, 24.603271%)" offset="0.246094"/><stop stop-opacity="1" stop-color="rgb(24.993896%, 24.993896%, 24.993896%)" offset="0.25"/><stop stop-opacity="1" stop-color="rgb(25.384521%, 25.384521%, 25.384521%)" offset="0.253906"/><stop stop-opacity="1" stop-color="rgb(25.775146%, 25.775146%, 25.775146%)" offset="0.257813"/><stop stop-opacity="1" stop-color="rgb(26.165771%, 26.165771%, 26.165771%)" offset="0.261719"/><stop stop-opacity="1" stop-color="rgb(26.556396%, 26.556396%, 26.556396%)" offset="0.265625"/><stop stop-opacity="1" stop-color="rgb(26.947021%, 26.947021%, 26.947021%)" offset="0.269531"/><stop stop-opacity="1" stop-color="rgb(27.337646%, 27.337646%, 27.337646%)" offset="0.273438"/><stop stop-opacity="1" stop-color="rgb(27.728271%, 27.728271%, 27.728271%)" offset="0.277344"/><stop stop-opacity="1" stop-color="rgb(28.118896%, 28.118896%, 28.118896%)" offset="0.28125"/><stop stop-opacity="1" stop-color="rgb(28.507996%, 28.507996%, 28.507996%)" offset="0.285156"/><stop stop-opacity="1" stop-color="rgb(28.898621%, 28.898621%, 28.898621%)" offset="0.289062"/><stop stop-opacity="1" stop-color="rgb(29.289246%, 29.289246%, 29.289246%)" offset="0.292969"/><stop stop-opacity="1" stop-color="rgb(29.679871%, 29.679871%, 29.679871%)" offset="0.296875"/><stop stop-opacity="1" stop-color="rgb(30.070496%, 30.070496%, 30.070496%)" offset="0.300781"/><stop stop-opacity="1" stop-color="rgb(30.461121%, 30.461121%, 30.461121%)" offset="0.304688"/><stop stop-opacity="1" stop-color="rgb(30.851746%, 30.851746%, 30.851746%)" offset="0.308594"/><stop stop-opacity="1" stop-color="rgb(31.242371%, 31.242371%, 31.242371%)" offset="0.3125"/><stop stop-opacity="1" stop-color="rgb(31.632996%, 31.632996%, 31.632996%)" offset="0.316406"/><stop stop-opacity="1" stop-color="rgb(32.023621%, 32.023621%, 32.023621%)" offset="0.320312"/><stop stop-opacity="1" stop-color="rgb(32.414246%, 32.414246%, 32.414246%)" offset="0.324219"/><stop stop-opacity="1" stop-color="rgb(32.804871%, 32.804871%, 32.804871%)" offset="0.328125"/><stop stop-opacity="1" stop-color="rgb(33.195496%, 33.195496%, 33.195496%)" offset="0.332031"/><stop stop-opacity="1" stop-color="rgb(33.586121%, 33.586121%, 33.586121%)" offset="0.335937"/><stop stop-opacity="1" stop-color="rgb(33.976746%, 33.976746%, 33.976746%)" offset="0.339844"/><stop stop-opacity="1" stop-color="rgb(34.367371%, 34.367371%, 34.367371%)" offset="0.34375"/><stop stop-opacity="1" stop-color="rgb(34.757996%, 34.757996%, 34.757996%)" offset="0.347656"/><stop stop-opacity="1" stop-color="rgb(35.148621%, 35.148621%, 35.148621%)" offset="0.351563"/><stop stop-opacity="1" stop-color="rgb(35.53772%, 35.53772%, 35.53772%)" offset="0.355469"/><stop stop-opacity="1" stop-color="rgb(35.928345%, 35.928345%, 35.928345%)" offset="0.359375"/><stop stop-opacity="1" stop-color="rgb(36.31897%, 36.31897%, 36.31897%)" offset="0.363281"/><stop stop-opacity="1" stop-color="rgb(36.709595%, 36.709595%, 36.709595%)" offset="0.367188"/><stop stop-opacity="1" stop-color="rgb(37.10022%, 37.10022%, 37.10022%)" offset="0.371094"/><stop stop-opacity="1" stop-color="rgb(37.490845%, 37.490845%, 37.490845%)" offset="0.375"/><stop stop-opacity="1" stop-color="rgb(37.88147%, 37.88147%, 37.88147%)" offset="0.378906"/><stop stop-opacity="1" stop-color="rgb(38.272095%, 38.272095%, 38.272095%)" offset="0.382812"/><stop stop-opacity="1" stop-color="rgb(38.66272%, 38.66272%, 38.66272%)" offset="0.386719"/><stop stop-opacity="1" stop-color="rgb(39.053345%, 39.053345%, 39.053345%)" offset="0.390625"/><stop stop-opacity="1" stop-color="rgb(39.44397%, 39.44397%, 39.44397%)" offset="0.394531"/><stop stop-opacity="1" stop-color="rgb(39.834595%, 39.834595%, 39.834595%)" offset="0.398438"/><stop stop-opacity="1" stop-color="rgb(40.22522%, 40.22522%, 40.22522%)" offset="0.402344"/><stop stop-opacity="1" stop-color="rgb(40.615845%, 40.615845%, 40.615845%)" offset="0.40625"/><stop stop-opacity="1" stop-color="rgb(41.00647%, 41.00647%, 41.00647%)" offset="0.410156"/><stop stop-opacity="1" stop-color="rgb(41.397095%, 41.397095%, 41.397095%)" offset="0.414062"/><stop stop-opacity="1" stop-color="rgb(41.786194%, 41.786194%, 41.786194%)" offset="0.417969"/><stop stop-opacity="1" stop-color="rgb(42.176819%, 42.176819%, 42.176819%)" offset="0.421875"/><stop stop-opacity="1" stop-color="rgb(42.567444%, 42.567444%, 42.567444%)" offset="0.425781"/><stop stop-opacity="1" stop-color="rgb(42.958069%, 42.958069%, 42.958069%)" offset="0.429687"/><stop stop-opacity="1" stop-color="rgb(43.348694%, 43.348694%, 43.348694%)" offset="0.433594"/><stop stop-opacity="1" stop-color="rgb(43.739319%, 43.739319%, 43.739319%)" offset="0.4375"/><stop stop-opacity="1" stop-color="rgb(44.129944%, 44.129944%, 44.129944%)" offset="0.441406"/><stop stop-opacity="1" stop-color="rgb(44.520569%, 44.520569%, 44.520569%)" offset="0.445313"/><stop stop-opacity="1" stop-color="rgb(44.911194%, 44.911194%, 44.911194%)" offset="0.449219"/><stop stop-opacity="1" stop-color="rgb(45.301819%, 45.301819%, 45.301819%)" offset="0.453125"/><stop stop-opacity="1" stop-color="rgb(45.692444%, 45.692444%, 45.692444%)" offset="0.457031"/><stop stop-opacity="1" stop-color="rgb(46.083069%, 46.083069%, 46.083069%)" offset="0.460938"/><stop stop-opacity="1" stop-color="rgb(46.473694%, 46.473694%, 46.473694%)" offset="0.464844"/><stop stop-opacity="1" stop-color="rgb(46.864319%, 46.864319%, 46.864319%)" offset="0.46875"/><stop stop-opacity="1" stop-color="rgb(47.254944%, 47.254944%, 47.254944%)" offset="0.472656"/><stop stop-opacity="1" stop-color="rgb(47.645569%, 47.645569%, 47.645569%)" offset="0.476562"/><stop stop-opacity="1" stop-color="rgb(48.036194%, 48.036194%, 48.036194%)" offset="0.480469"/><stop stop-opacity="1" stop-color="rgb(48.426819%, 48.426819%, 48.426819%)" offset="0.484375"/><stop stop-opacity="1" stop-color="rgb(48.815918%, 48.815918%, 48.815918%)" offset="0.488281"/><stop stop-opacity="1" stop-color="rgb(49.206543%, 49.206543%, 49.206543%)" offset="0.492188"/><stop stop-opacity="1" stop-color="rgb(49.597168%, 49.597168%, 49.597168%)" offset="0.496094"/><stop stop-opacity="1" stop-color="rgb(49.987793%, 49.987793%, 49.987793%)" offset="0.5"/><stop stop-opacity="1" stop-color="rgb(50.378418%, 50.378418%, 50.378418%)" offset="0.503906"/><stop stop-opacity="1" stop-color="rgb(50.769043%, 50.769043%, 50.769043%)" offset="0.507812"/><stop stop-opacity="1" stop-color="rgb(51.159668%, 51.159668%, 51.159668%)" offset="0.511719"/><stop stop-opacity="1" stop-color="rgb(51.550293%, 51.550293%, 51.550293%)" offset="0.515625"/><stop stop-opacity="1" stop-color="rgb(51.940918%, 51.940918%, 51.940918%)" offset="0.519531"/><stop stop-opacity="1" stop-color="rgb(52.331543%, 52.331543%, 52.331543%)" offset="0.523438"/><stop stop-opacity="1" stop-color="rgb(52.722168%, 52.722168%, 52.722168%)" offset="0.527344"/><stop stop-opacity="1" stop-color="rgb(53.112793%, 53.112793%, 53.112793%)" offset="0.53125"/><stop stop-opacity="1" stop-color="rgb(53.503418%, 53.503418%, 53.503418%)" offset="0.535156"/><stop stop-opacity="1" stop-color="rgb(53.894043%, 53.894043%, 53.894043%)" offset="0.539062"/><stop stop-opacity="1" stop-color="rgb(54.284668%, 54.284668%, 54.284668%)" offset="0.542969"/><stop stop-opacity="1" stop-color="rgb(54.675293%, 54.675293%, 54.675293%)" offset="0.546875"/><stop stop-opacity="1" stop-color="rgb(55.065918%, 55.065918%, 55.065918%)" offset="0.550781"/><stop stop-opacity="1" stop-color="rgb(55.456543%, 55.456543%, 55.456543%)" offset="0.554687"/><stop stop-opacity="1" stop-color="rgb(55.845642%, 55.845642%, 55.845642%)" offset="0.558594"/><stop stop-opacity="1" stop-color="rgb(56.236267%, 56.236267%, 56.236267%)" offset="0.5625"/><stop stop-opacity="1" stop-color="rgb(56.626892%, 56.626892%, 56.626892%)" offset="0.566406"/><stop stop-opacity="1" stop-color="rgb(57.017517%, 57.017517%, 57.017517%)" offset="0.570312"/><stop stop-opacity="1" stop-color="rgb(57.408142%, 57.408142%, 57.408142%)" offset="0.574219"/><stop stop-opacity="1" stop-color="rgb(57.798767%, 57.798767%, 57.798767%)" offset="0.578125"/><stop stop-opacity="1" stop-color="rgb(58.189392%, 58.189392%, 58.189392%)" offset="0.582031"/><stop stop-opacity="1" stop-color="rgb(58.580017%, 58.580017%, 58.580017%)" offset="0.585937"/><stop stop-opacity="1" stop-color="rgb(58.970642%, 58.970642%, 58.970642%)" offset="0.589844"/><stop stop-opacity="1" stop-color="rgb(59.361267%, 59.361267%, 59.361267%)" offset="0.59375"/><stop stop-opacity="1" stop-color="rgb(59.751892%, 59.751892%, 59.751892%)" offset="0.597656"/><stop stop-opacity="1" stop-color="rgb(60.142517%, 60.142517%, 60.142517%)" offset="0.601562"/><stop stop-opacity="1" stop-color="rgb(60.533142%, 60.533142%, 60.533142%)" offset="0.605469"/><stop stop-opacity="1" stop-color="rgb(60.923767%, 60.923767%, 60.923767%)" offset="0.609375"/><stop stop-opacity="1" stop-color="rgb(61.314392%, 61.314392%, 61.314392%)" offset="0.613281"/><stop stop-opacity="1" stop-color="rgb(61.705017%, 61.705017%, 61.705017%)" offset="0.617187"/><stop stop-opacity="1" stop-color="rgb(62.095642%, 62.095642%, 62.095642%)" offset="0.621094"/><stop stop-opacity="1" stop-color="rgb(62.486267%, 62.486267%, 62.486267%)" offset="0.625"/><stop stop-opacity="1" stop-color="rgb(62.875366%, 62.875366%, 62.875366%)" offset="0.628906"/><stop stop-opacity="1" stop-color="rgb(63.265991%, 63.265991%, 63.265991%)" offset="0.632813"/><stop stop-opacity="1" stop-color="rgb(63.656616%, 63.656616%, 63.656616%)" offset="0.636719"/><stop stop-opacity="1" stop-color="rgb(64.047241%, 64.047241%, 64.047241%)" offset="0.640625"/><stop stop-opacity="1" stop-color="rgb(64.437866%, 64.437866%, 64.437866%)" offset="0.644531"/><stop stop-opacity="1" stop-color="rgb(64.828491%, 64.828491%, 64.828491%)" offset="0.648438"/><stop stop-opacity="1" stop-color="rgb(65.219116%, 65.219116%, 65.219116%)" offset="0.652344"/><stop stop-opacity="1" stop-color="rgb(65.609741%, 65.609741%, 65.609741%)" offset="0.65625"/><stop stop-opacity="1" stop-color="rgb(66.000366%, 66.000366%, 66.000366%)" offset="0.660156"/><stop stop-opacity="1" stop-color="rgb(66.390991%, 66.390991%, 66.390991%)" offset="0.664062"/><stop stop-opacity="1" stop-color="rgb(66.781616%, 66.781616%, 66.781616%)" offset="0.667969"/><stop stop-opacity="1" stop-color="rgb(67.172241%, 67.172241%, 67.172241%)" offset="0.671875"/><stop stop-opacity="1" stop-color="rgb(67.562866%, 67.562866%, 67.562866%)" offset="0.675781"/><stop stop-opacity="1" stop-color="rgb(67.953491%, 67.953491%, 67.953491%)" offset="0.679688"/><stop stop-opacity="1" stop-color="rgb(68.344116%, 68.344116%, 68.344116%)" offset="0.683594"/><stop stop-opacity="1" stop-color="rgb(68.734741%, 68.734741%, 68.734741%)" offset="0.6875"/><stop stop-opacity="1" stop-color="rgb(69.125366%, 69.125366%, 69.125366%)" offset="0.691406"/><stop stop-opacity="1" stop-color="rgb(69.515991%, 69.515991%, 69.515991%)" offset="0.695312"/><stop stop-opacity="1" stop-color="rgb(69.90509%, 69.90509%, 69.90509%)" offset="0.699219"/><stop stop-opacity="1" stop-color="rgb(70.295715%, 70.295715%, 70.295715%)" offset="0.703125"/><stop stop-opacity="1" stop-color="rgb(70.68634%, 70.68634%, 70.68634%)" offset="0.707031"/><stop stop-opacity="1" stop-color="rgb(71.076965%, 71.076965%, 71.076965%)" offset="0.710938"/><stop stop-opacity="1" stop-color="rgb(71.46759%, 71.46759%, 71.46759%)" offset="0.714844"/><stop stop-opacity="1" stop-color="rgb(71.858215%, 71.858215%, 71.858215%)" offset="0.71875"/><stop stop-opacity="1" stop-color="rgb(72.24884%, 72.24884%, 72.24884%)" offset="0.722656"/><stop stop-opacity="1" stop-color="rgb(72.639465%, 72.639465%, 72.639465%)" offset="0.726562"/><stop stop-opacity="1" stop-color="rgb(73.03009%, 73.03009%, 73.03009%)" offset="0.730469"/><stop stop-opacity="1" stop-color="rgb(73.420715%, 73.420715%, 73.420715%)" offset="0.734375"/><stop stop-opacity="1" stop-color="rgb(73.81134%, 73.81134%, 73.81134%)" offset="0.738281"/><stop stop-opacity="1" stop-color="rgb(74.201965%, 74.201965%, 74.201965%)" offset="0.742188"/><stop stop-opacity="1" stop-color="rgb(74.59259%, 74.59259%, 74.59259%)" offset="0.746094"/><stop stop-opacity="1" stop-color="rgb(74.983215%, 74.983215%, 74.983215%)" offset="0.75"/><stop stop-opacity="1" stop-color="rgb(75.37384%, 75.37384%, 75.37384%)" offset="0.753906"/><stop stop-opacity="1" stop-color="rgb(75.764465%, 75.764465%, 75.764465%)" offset="0.757812"/><stop stop-opacity="1" stop-color="rgb(76.15509%, 76.15509%, 76.15509%)" offset="0.761719"/><stop stop-opacity="1" stop-color="rgb(76.545715%, 76.545715%, 76.545715%)" offset="0.765625"/><stop stop-opacity="1" stop-color="rgb(76.934814%, 76.934814%, 76.934814%)" offset="0.769531"/><stop stop-opacity="1" stop-color="rgb(77.325439%, 77.325439%, 77.325439%)" offset="0.773437"/><stop stop-opacity="1" stop-color="rgb(77.716064%, 77.716064%, 77.716064%)" offset="0.777344"/><stop stop-opacity="1" stop-color="rgb(78.106689%, 78.106689%, 78.106689%)" offset="0.78125"/><stop stop-opacity="1" stop-color="rgb(78.497314%, 78.497314%, 78.497314%)" offset="0.785156"/><stop stop-opacity="1" stop-color="rgb(78.887939%, 78.887939%, 78.887939%)" offset="0.789062"/><stop stop-opacity="1" stop-color="rgb(79.278564%, 79.278564%, 79.278564%)" offset="0.792969"/><stop stop-opacity="1" stop-color="rgb(79.669189%, 79.669189%, 79.669189%)" offset="0.796875"/><stop stop-opacity="1" stop-color="rgb(80.059814%, 80.059814%, 80.059814%)" offset="0.800781"/><stop stop-opacity="1" stop-color="rgb(80.450439%, 80.450439%, 80.450439%)" offset="0.804687"/><stop stop-opacity="1" stop-color="rgb(80.841064%, 80.841064%, 80.841064%)" offset="0.808594"/><stop stop-opacity="1" stop-color="rgb(81.231689%, 81.231689%, 81.231689%)" offset="0.8125"/><stop stop-opacity="1" stop-color="rgb(81.622314%, 81.622314%, 81.622314%)" offset="0.816406"/><stop stop-opacity="1" stop-color="rgb(82.012939%, 82.012939%, 82.012939%)" offset="0.820313"/><stop stop-opacity="1" stop-color="rgb(82.403564%, 82.403564%, 82.403564%)" offset="0.824219"/><stop stop-opacity="1" stop-color="rgb(82.794189%, 82.794189%, 82.794189%)" offset="0.828125"/><stop stop-opacity="1" stop-color="rgb(83.184814%, 83.184814%, 83.184814%)" offset="0.832031"/><stop stop-opacity="1" stop-color="rgb(83.575439%, 83.575439%, 83.575439%)" offset="0.835938"/><stop stop-opacity="1" stop-color="rgb(83.964539%, 83.964539%, 83.964539%)" offset="0.839844"/><stop stop-opacity="1" stop-color="rgb(84.355164%, 84.355164%, 84.355164%)" offset="0.84375"/><stop stop-opacity="1" stop-color="rgb(84.745789%, 84.745789%, 84.745789%)" offset="0.847656"/><stop stop-opacity="1" stop-color="rgb(85.136414%, 85.136414%, 85.136414%)" offset="0.851562"/><stop stop-opacity="1" stop-color="rgb(85.527039%, 85.527039%, 85.527039%)" offset="0.855469"/><stop stop-opacity="1" stop-color="rgb(85.917664%, 85.917664%, 85.917664%)" offset="0.859375"/><stop stop-opacity="1" stop-color="rgb(86.308289%, 86.308289%, 86.308289%)" offset="0.863281"/><stop stop-opacity="1" stop-color="rgb(86.698914%, 86.698914%, 86.698914%)" offset="0.867188"/><stop stop-opacity="1" stop-color="rgb(87.089539%, 87.089539%, 87.089539%)" offset="0.871094"/><stop stop-opacity="1" stop-color="rgb(87.480164%, 87.480164%, 87.480164%)" offset="0.875"/><stop stop-opacity="1" stop-color="rgb(87.870789%, 87.870789%, 87.870789%)" offset="0.878906"/><stop stop-opacity="1" stop-color="rgb(88.261414%, 88.261414%, 88.261414%)" offset="0.882812"/><stop stop-opacity="1" stop-color="rgb(88.652039%, 88.652039%, 88.652039%)" offset="0.886719"/><stop stop-opacity="1" stop-color="rgb(89.042664%, 89.042664%, 89.042664%)" offset="0.890625"/><stop stop-opacity="1" stop-color="rgb(89.433289%, 89.433289%, 89.433289%)" offset="0.894531"/><stop stop-opacity="1" stop-color="rgb(89.823914%, 89.823914%, 89.823914%)" offset="0.898438"/><stop stop-opacity="1" stop-color="rgb(90.214539%, 90.214539%, 90.214539%)" offset="0.902344"/><stop stop-opacity="1" stop-color="rgb(90.605164%, 90.605164%, 90.605164%)" offset="0.90625"/><stop stop-opacity="1" stop-color="rgb(90.994263%, 90.994263%, 90.994263%)" offset="0.910156"/><stop stop-opacity="1" stop-color="rgb(91.384888%, 91.384888%, 91.384888%)" offset="0.914062"/><stop stop-opacity="1" stop-color="rgb(91.775513%, 91.775513%, 91.775513%)" offset="0.917969"/><stop stop-opacity="1" stop-color="rgb(92.166138%, 92.166138%, 92.166138%)" offset="0.921875"/><stop stop-opacity="1" stop-color="rgb(92.556763%, 92.556763%, 92.556763%)" offset="0.925781"/><stop stop-opacity="1" stop-color="rgb(92.947388%, 92.947388%, 92.947388%)" offset="0.929688"/><stop stop-opacity="1" stop-color="rgb(93.338013%, 93.338013%, 93.338013%)" offset="0.933594"/><stop stop-opacity="1" stop-color="rgb(93.728638%, 93.728638%, 93.728638%)" offset="0.9375"/><stop stop-opacity="1" stop-color="rgb(94.119263%, 94.119263%, 94.119263%)" offset="0.941406"/><stop stop-opacity="1" stop-color="rgb(94.509888%, 94.509888%, 94.509888%)" offset="0.945312"/><stop stop-opacity="1" stop-color="rgb(94.900513%, 94.900513%, 94.900513%)" offset="0.949219"/><stop stop-opacity="1" stop-color="rgb(95.291138%, 95.291138%, 95.291138%)" offset="0.953125"/><stop stop-opacity="1" stop-color="rgb(95.681763%, 95.681763%, 95.681763%)" offset="0.957031"/><stop stop-opacity="1" stop-color="rgb(96.072388%, 96.072388%, 96.072388%)" offset="0.960937"/><stop stop-opacity="1" stop-color="rgb(96.463013%, 96.463013%, 96.463013%)" offset="0.964844"/><stop stop-opacity="1" stop-color="rgb(96.853638%, 96.853638%, 96.853638%)" offset="0.96875"/><stop stop-opacity="1" stop-color="rgb(97.244263%, 97.244263%, 97.244263%)" offset="0.972656"/><stop stop-opacity="1" stop-color="rgb(97.634888%, 97.634888%, 97.634888%)" offset="0.976562"/><stop stop-opacity="1" stop-color="rgb(98.023987%, 98.023987%, 98.023987%)" offset="0.980469"/><stop stop-opacity="1" stop-color="rgb(98.414612%, 98.414612%, 98.414612%)" offset="0.984375"/><stop stop-opacity="1" stop-color="rgb(98.805237%, 98.805237%, 98.805237%)" offset="0.988281"/><stop stop-opacity="1" stop-color="rgb(99.195862%, 99.195862%, 99.195862%)" offset="0.992187"/><stop stop-opacity="1" stop-color="rgb(99.586487%, 99.586487%, 99.586487%)" offset="0.996094"/><stop stop-opacity="1" stop-color="rgb(99.977112%, 99.977112%, 99.977112%)" offset="1"/></linearGradient><clipPath id="07727dd2b8"><rect x="0" width="219" y="0" height="40"/></clipPath><clipPath id="88f08a3ab8"><rect x="0" width="219" y="0" height="40"/></clipPath><clipPath id="9f674db842"><path d="M 119.171875 130.34375 L 180.285156 130.34375 L 180.285156 191.457031 L 119.171875 191.457031 Z M 119.171875 130.34375 " clip-rule="nonzero"/></clipPath><clipPath id="45d2a50f0f"><path d="M 149.726562 130.34375 C 132.851562 130.34375 119.171875 144.027344 119.171875 160.902344 C 119.171875 177.777344 132.851562 191.457031 149.726562 191.457031 C 166.605469 191.457031 180.285156 177.777344 180.285156 160.902344 C 180.285156 144.027344 166.605469 130.34375 149.726562 130.34375 Z M 149.726562 130.34375 " clip-rule="nonzero"/></clipPath><clipPath id="a2f78a8ec1"><path d="M 0.171875 0.34375 L 61.285156 0.34375 L 61.285156 61.457031 L 0.171875 61.457031 Z M 0.171875 0.34375 " clip-rule="nonzero"/></clipPath><clipPath id="2b3e73eb0a"><path d="M 30.726562 0.34375 C 13.851562 0.34375 0.171875 14.027344 0.171875 30.902344 C 0.171875 47.777344 13.851562 61.457031 30.726562 61.457031 C 47.605469 61.457031 61.285156 47.777344 61.285156 30.902344 C 61.285156 14.027344 47.605469 0.34375 30.726562 0.34375 Z M 30.726562 0.34375 " clip-rule="nonzero"/></clipPath><clipPath id="f1b2624087"><rect x="0" width="62" y="0" height="62"/></clipPath><clipPath id="6be383e635"><rect x="0" width="133" y="0" height="47"/></clipPath><clipPath id="1908c05afd"><rect x="0" width="137" y="0" height="21"/></clipPath></defs><g clip-path="url(#572bb8d20b)"><g clip-path="url(#e1880afb3e)"><g transform="matrix(1, 0, 0, 1, 149, 89)"><g clip-path="url(#ae48ca6423)"><g clip-path="url(#7c42954a15)"><g clip-path="url(#5438e0885f)"><g clip-path="url(#3161880642)"><g clip-path="url(#65e8645f04)"><path fill="url(#3de392e0bb)" d="M 67.195312 -76.917969 L -69.617188 82.835938 L 91.351562 220.695312 L 228.167969 60.941406 Z M 67.195312 -76.917969 " fill-rule="nonzero"/></g></g></g></g></g></g></g></g><g mask="url(#32163f6dd8)"><g transform="matrix(1, 0, 0, 1, 78, 193)"><g clip-path="url(#88f08a3ab8)"><g clip-path="url(#76b67e014f)"><g><g clip-path="url(#07727dd2b8)"><g clip-path="url(#713e05024c)"><path fill="url(#117aa8b8e3)" d="M 0.6875 0.359375 L 0.6875 39.109375 L 218.214844 39.109375 L 218.214844 0.359375 Z M 0.6875 0.359375 " fill-rule="nonzero"/></g></g></g></g></g></g></g><g clip-path="url(#9f674db842)"><g clip-path="url(#45d2a50f0f)"><g transform="matrix(1, 0, 0, 1, 119, 130)"><g clip-path="url(#f1b2624087)"><g clip-path="url(#a2f78a8ec1)"><g clip-path="url(#2b3e73eb0a)"><path fill="#d9d9d9" d="M 0.171875 0.34375 L 61.285156 0.34375 L 61.285156 61.457031 L 0.171875 61.457031 Z M 0.171875 0.34375 " fill-opacity="1" fill-rule="nonzero"/></g></g></g></g></g></g><g transform="matrix(1, 0, 0, 1, 121, 232)"><g clip-path="url(#6be383e635)"><g fill="#ffffff" fill-opacity="1"><g transform="translate(0.900626, 33.695613)"><g><path d="M 22.25 -23.515625 L 14.109375 -7.765625 L 14.109375 0 L 8.375 0 L 8.375 -7.765625 L 0.234375 -23.515625 L 6.734375 -23.515625 L 11.296875 -13.671875 L 15.8125 -23.515625 Z M 22.25 -23.515625 "/></g></g></g><g fill="#ffffff" fill-opacity="1"><g transform="translate(23.374333, 33.695613)"><g><path d="M 23.109375 0 L 17.390625 0 L 7.8125 -14.5 L 7.8125 0 L 2.078125 0 L 2.078125 -23.515625 L 7.8125 -23.515625 L 17.390625 -8.9375 L 17.390625 -23.515625 L 23.109375 -23.515625 Z M 23.109375 0 "/></g></g></g><g fill="#ffffff" fill-opacity="1"><g transform="translate(48.560961, 33.695613)"><g><path d="M 19 -23.515625 L 19 -18.921875 L 12.765625 -18.921875 L 12.765625 0 L 7.03125 0 L 7.03125 -18.921875 L 0.796875 -18.921875 L 0.796875 -23.515625 Z M 19 -23.515625 "/></g></g></g><g fill="#ffffff" fill-opacity="1"><g transform="translate(68.355222, 33.695613)"><g><path d="M 15.71875 0 L 7.8125 -10.390625 L 7.8125 0 L 2.078125 0 L 2.078125 -23.515625 L 7.8125 -23.515625 L 7.8125 -13.203125 L 15.640625 -23.515625 L 22.375 -23.515625 L 13.265625 -12 L 22.71875 0 Z M 15.71875 0 "/></g></g></g><g fill="#ffffff" fill-opacity="1"><g transform="translate(91.699745, 33.695613)"><g><path d="M 19 -23.515625 L 19 -18.921875 L 12.765625 -18.921875 L 12.765625 0 L 7.03125 0 L 7.03125 -18.921875 L 0.796875 -18.921875 L 0.796875 -23.515625 Z M 19 -23.515625 "/></g></g></g><g fill="#ffffff" fill-opacity="1"><g transform="translate(111.494006, 33.695613)"><g><path d="M 10.59375 0.234375 C 8.863281 0.234375 7.316406 -0.0390625 5.953125 -0.59375 C 4.597656 -1.15625 3.507812 -1.984375 2.6875 -3.078125 C 1.875 -4.171875 1.445312 -5.488281 1.40625 -7.03125 L 7.5 -7.03125 C 7.59375 -6.164062 7.894531 -5.503906 8.40625 -5.046875 C 8.914062 -4.585938 9.585938 -4.359375 10.421875 -4.359375 C 11.265625 -4.359375 11.929688 -4.550781 12.421875 -4.9375 C 12.921875 -5.332031 13.171875 -5.875 13.171875 -6.5625 C 13.171875 -7.144531 12.972656 -7.625 12.578125 -8 C 12.191406 -8.382812 11.710938 -8.695312 11.140625 -8.9375 C 10.566406 -9.1875 9.753906 -9.46875 8.703125 -9.78125 C 7.191406 -10.25 5.953125 -10.71875 4.984375 -11.1875 C 4.023438 -11.65625 3.195312 -12.347656 2.5 -13.265625 C 1.8125 -14.179688 1.46875 -15.375 1.46875 -16.84375 C 1.46875 -19.039062 2.257812 -20.757812 3.84375 -22 C 5.4375 -23.238281 7.503906 -23.859375 10.046875 -23.859375 C 12.640625 -23.859375 14.726562 -23.238281 16.3125 -22 C 17.894531 -20.757812 18.742188 -19.03125 18.859375 -16.8125 L 12.65625 -16.8125 C 12.613281 -17.570312 12.335938 -18.171875 11.828125 -18.609375 C 11.316406 -19.046875 10.65625 -19.265625 9.84375 -19.265625 C 9.15625 -19.265625 8.597656 -19.078125 8.171875 -18.703125 C 7.742188 -18.335938 7.53125 -17.8125 7.53125 -17.125 C 7.53125 -16.363281 7.890625 -15.769531 8.609375 -15.34375 C 9.328125 -14.914062 10.441406 -14.457031 11.953125 -13.96875 C 13.472656 -13.457031 14.707031 -12.96875 15.65625 -12.5 C 16.601562 -12.03125 17.421875 -11.347656 18.109375 -10.453125 C 18.804688 -9.554688 19.15625 -8.40625 19.15625 -7 C 19.15625 -5.65625 18.816406 -4.4375 18.140625 -3.34375 C 17.460938 -2.25 16.472656 -1.378906 15.171875 -0.734375 C 13.878906 -0.0859375 12.351562 0.234375 10.59375 0.234375 Z M 10.59375 0.234375 "/></g></g></g></g></g><g transform="matrix(1, 0, 0, 1, 119, 270)"><g clip-path="url(#1908c05afd)"><g fill="#b4b4b4" fill-opacity="1"><g transform="translate(0.860924, 14.60477)"><g><path d="M 7.6875 -10.59375 L 7.6875 -9.46875 L 4.796875 -9.46875 L 4.796875 0 L 3.421875 0 L 3.421875 -9.46875 L 0.515625 -9.46875 L 0.515625 -10.59375 Z M 7.6875 -10.59375 "/></g></g></g><g fill="#b4b4b4" fill-opacity="1"><g transform="translate(9.08121, 14.60477)"><g><path d="M 9.328125 -10.59375 L 9.328125 0 L 7.953125 0 L 7.953125 -4.796875 L 2.546875 -4.796875 L 2.546875 0 L 1.171875 0 L 1.171875 -10.59375 L 2.546875 -10.59375 L 2.546875 -5.9375 L 7.953125 -5.9375 L 7.953125 -10.59375 Z M 9.328125 -10.59375 "/></g></g></g><g fill="#b4b4b4" fill-opacity="1"><g transform="translate(19.595887, 14.60477)"><g><path d="M 2.546875 -9.46875 L 2.546875 -5.921875 L 6.421875 -5.921875 L 6.421875 -4.78125 L 2.546875 -4.78125 L 2.546875 -1.140625 L 6.875 -1.140625 L 6.875 0 L 1.171875 0 L 1.171875 -10.609375 L 6.875 -10.609375 L 6.875 -9.46875 Z M 2.546875 -9.46875 "/></g></g></g><g fill="#b4b4b4" fill-opacity="1"><g transform="translate(27.390722, 14.60477)"><g/></g></g><g fill="#b4b4b4" fill-opacity="1"><g transform="translate(31.447678, 14.60477)"><g><path d="M 6.484375 -5.453125 C 6.859375 -5.390625 7.207031 -5.234375 7.53125 -4.984375 C 7.851562 -4.734375 8.109375 -4.421875 8.296875 -4.046875 C 8.484375 -3.671875 8.578125 -3.269531 8.578125 -2.84375 C 8.578125 -2.300781 8.4375 -1.816406 8.15625 -1.390625 C 7.882812 -0.960938 7.488281 -0.625 6.96875 -0.375 C 6.445312 -0.125 5.832031 0 5.125 0 L 1.171875 0 L 1.171875 -10.59375 L 4.96875 -10.59375 C 5.6875 -10.59375 6.300781 -10.472656 6.8125 -10.234375 C 7.320312 -9.992188 7.703125 -9.671875 7.953125 -9.265625 C 8.203125 -8.867188 8.328125 -8.414062 8.328125 -7.90625 C 8.328125 -7.28125 8.15625 -6.757812 7.8125 -6.34375 C 7.476562 -5.9375 7.035156 -5.640625 6.484375 -5.453125 Z M 2.546875 -6.015625 L 4.875 -6.015625 C 5.53125 -6.015625 6.035156 -6.164062 6.390625 -6.46875 C 6.742188 -6.78125 6.921875 -7.203125 6.921875 -7.734375 C 6.921875 -8.273438 6.742188 -8.695312 6.390625 -9 C 6.035156 -9.300781 5.519531 -9.453125 4.84375 -9.453125 L 2.546875 -9.453125 Z M 5 -1.140625 C 5.6875 -1.140625 6.222656 -1.300781 6.609375 -1.625 C 6.992188 -1.945312 7.1875 -2.398438 7.1875 -2.984375 C 7.1875 -3.566406 6.984375 -4.023438 6.578125 -4.359375 C 6.171875 -4.703125 5.628906 -4.875 4.953125 -4.875 L 2.546875 -4.875 L 2.546875 -1.140625 Z M 5 -1.140625 "/></g></g></g><g fill="#b4b4b4" fill-opacity="1"><g transform="translate(40.761972, 14.60477)"><g><path d="M 2.546875 -9.46875 L 2.546875 -5.921875 L 6.421875 -5.921875 L 6.421875 -4.78125 L 2.546875 -4.78125 L 2.546875 -1.140625 L 6.875 -1.140625 L 6.875 0 L 1.171875 0 L 1.171875 -10.609375 L 6.875 -10.609375 L 6.875 -9.46875 Z M 2.546875 -9.46875 "/></g></g></g><g fill="#b4b4b4" fill-opacity="1"><g transform="translate(48.556807, 14.60477)"><g><path d="M 4.53125 0.109375 C 3.832031 0.109375 3.207031 -0.015625 2.65625 -0.265625 C 2.101562 -0.515625 1.664062 -0.859375 1.34375 -1.296875 C 1.03125 -1.742188 0.867188 -2.253906 0.859375 -2.828125 L 2.34375 -2.828125 C 2.394531 -2.328125 2.597656 -1.90625 2.953125 -1.5625 C 3.316406 -1.226562 3.84375 -1.0625 4.53125 -1.0625 C 5.1875 -1.0625 5.703125 -1.222656 6.078125 -1.546875 C 6.460938 -1.878906 6.65625 -2.304688 6.65625 -2.828125 C 6.65625 -3.234375 6.539062 -3.5625 6.3125 -3.8125 C 6.09375 -4.070312 5.816406 -4.265625 5.484375 -4.390625 C 5.148438 -4.523438 4.703125 -4.664062 4.140625 -4.8125 C 3.441406 -5 2.878906 -5.179688 2.453125 -5.359375 C 2.035156 -5.546875 1.675781 -5.832031 1.375 -6.21875 C 1.070312 -6.613281 0.921875 -7.140625 0.921875 -7.796875 C 0.921875 -8.378906 1.066406 -8.890625 1.359375 -9.328125 C 1.660156 -9.773438 2.078125 -10.117188 2.609375 -10.359375 C 3.140625 -10.609375 3.75 -10.734375 4.4375 -10.734375 C 5.425781 -10.734375 6.238281 -10.484375 6.875 -9.984375 C 7.507812 -9.492188 7.867188 -8.835938 7.953125 -8.015625 L 6.4375 -8.015625 C 6.382812 -8.421875 6.171875 -8.773438 5.796875 -9.078125 C 5.421875 -9.390625 4.921875 -9.546875 4.296875 -9.546875 C 3.722656 -9.546875 3.253906 -9.394531 2.890625 -9.09375 C 2.523438 -8.800781 2.34375 -8.382812 2.34375 -7.84375 C 2.34375 -7.457031 2.453125 -7.140625 2.671875 -6.890625 C 2.890625 -6.648438 3.15625 -6.46875 3.46875 -6.34375 C 3.789062 -6.21875 4.238281 -6.070312 4.8125 -5.90625 C 5.519531 -5.71875 6.082031 -5.53125 6.5 -5.34375 C 6.925781 -5.15625 7.289062 -4.863281 7.59375 -4.46875 C 7.90625 -4.082031 8.0625 -3.554688 8.0625 -2.890625 C 8.0625 -2.367188 7.921875 -1.878906 7.640625 -1.421875 C 7.367188 -0.972656 6.960938 -0.601562 6.421875 -0.3125 C 5.890625 -0.03125 5.257812 0.109375 4.53125 0.109375 Z M 4.53125 0.109375 "/></g></g></g><g fill="#b4b4b4" fill-opacity="1"><g transform="translate(57.476039, 14.60477)"><g><path d="M 7.6875 -10.59375 L 7.6875 -9.46875 L 4.796875 -9.46875 L 4.796875 0 L 3.421875 0 L 3.421875 -9.46875 L 0.515625 -9.46875 L 0.515625 -10.59375 Z M 7.6875 -10.59375 "/></g></g></g><g fill="#b4b4b4" fill-opacity="1"><g transform="translate(65.696325, 14.60477)"><g/></g></g><g fill="#b4b4b4" fill-opacity="1"><g transform="translate(69.753281, 14.60477)"><g><path d="M 0.65625 -5.3125 C 0.65625 -6.34375 0.882812 -7.269531 1.34375 -8.09375 C 1.8125 -8.914062 2.445312 -9.5625 3.25 -10.03125 C 4.0625 -10.5 4.957031 -10.734375 5.9375 -10.734375 C 7.09375 -10.734375 8.101562 -10.453125 8.96875 -9.890625 C 9.832031 -9.335938 10.460938 -8.550781 10.859375 -7.53125 L 9.203125 -7.53125 C 8.898438 -8.164062 8.472656 -8.65625 7.921875 -9 C 7.367188 -9.34375 6.707031 -9.515625 5.9375 -9.515625 C 5.195312 -9.515625 4.535156 -9.34375 3.953125 -9 C 3.367188 -8.65625 2.90625 -8.164062 2.5625 -7.53125 C 2.226562 -6.894531 2.0625 -6.15625 2.0625 -5.3125 C 2.0625 -4.46875 2.226562 -3.726562 2.5625 -3.09375 C 2.90625 -2.457031 3.367188 -1.96875 3.953125 -1.625 C 4.535156 -1.28125 5.195312 -1.109375 5.9375 -1.109375 C 6.707031 -1.109375 7.367188 -1.273438 7.921875 -1.609375 C 8.472656 -1.953125 8.898438 -2.445312 9.203125 -3.09375 L 10.859375 -3.09375 C 10.460938 -2.070312 9.832031 -1.285156 8.96875 -0.734375 C 8.101562 -0.179688 7.09375 0.09375 5.9375 0.09375 C 4.957031 0.09375 4.0625 -0.132812 3.25 -0.59375 C 2.445312 -1.0625 1.8125 -1.703125 1.34375 -2.515625 C 0.882812 -3.335938 0.65625 -4.269531 0.65625 -5.3125 Z M 0.65625 -5.3125 "/></g></g></g><g fill="#b4b4b4" fill-opacity="1"><g transform="translate(81.483519, 14.60477)"><g><path d="M 9.328125 -10.59375 L 9.328125 0 L 7.953125 0 L 7.953125 -4.796875 L 2.546875 -4.796875 L 2.546875 0 L 1.171875 0 L 1.171875 -10.59375 L 2.546875 -10.59375 L 2.546875 -5.9375 L 7.953125 -5.9375 L 7.953125 -10.59375 Z M 9.328125 -10.59375 "/></g></g></g><g fill="#b4b4b4" fill-opacity="1"><g transform="translate(91.998196, 14.60477)"><g><path d="M 5.96875 0.109375 C 4.988281 0.109375 4.09375 -0.117188 3.28125 -0.578125 C 2.46875 -1.046875 1.828125 -1.691406 1.359375 -2.515625 C 0.890625 -3.335938 0.65625 -4.269531 0.65625 -5.3125 C 0.65625 -6.34375 0.890625 -7.269531 1.359375 -8.09375 C 1.828125 -8.914062 2.46875 -9.554688 3.28125 -10.015625 C 4.09375 -10.484375 4.988281 -10.71875 5.96875 -10.71875 C 6.96875 -10.71875 7.867188 -10.484375 8.671875 -10.015625 C 9.484375 -9.554688 10.125 -8.914062 10.59375 -8.09375 C 11.0625 -7.28125 11.296875 -6.351562 11.296875 -5.3125 C 11.296875 -4.257812 11.0625 -3.320312 10.59375 -2.5 C 10.125 -1.6875 9.484375 -1.046875 8.671875 -0.578125 C 7.867188 -0.117188 6.96875 0.109375 5.96875 0.109375 Z M 5.96875 -1.09375 C 6.707031 -1.09375 7.375 -1.265625 7.96875 -1.609375 C 8.5625 -1.953125 9.023438 -2.441406 9.359375 -3.078125 C 9.703125 -3.722656 9.875 -4.46875 9.875 -5.3125 C 9.875 -6.15625 9.703125 -6.894531 9.359375 -7.53125 C 9.023438 -8.164062 8.5625 -8.65625 7.96875 -9 C 7.382812 -9.34375 6.71875 -9.515625 5.96875 -9.515625 C 5.21875 -9.515625 4.550781 -9.34375 3.96875 -9 C 3.382812 -8.65625 2.921875 -8.164062 2.578125 -7.53125 C 2.234375 -6.894531 2.0625 -6.15625 2.0625 -5.3125 C 2.0625 -4.46875 2.234375 -3.722656 2.578125 -3.078125 C 2.921875 -2.441406 3.382812 -1.953125 3.96875 -1.609375 C 4.5625 -1.265625 5.226562 -1.09375 5.96875 -1.09375 Z M 5.96875 -1.09375 "/></g></g></g><g fill="#b4b4b4" fill-opacity="1"><g transform="translate(103.941166, 14.60477)"><g><path d="M 2.546875 -10.59375 L 2.546875 0 L 1.171875 0 L 1.171875 -10.59375 Z M 2.546875 -10.59375 "/></g></g></g><g fill="#b4b4b4" fill-opacity="1"><g transform="translate(107.679045, 14.60477)"><g><path d="M 0.65625 -5.3125 C 0.65625 -6.34375 0.882812 -7.269531 1.34375 -8.09375 C 1.8125 -8.914062 2.445312 -9.5625 3.25 -10.03125 C 4.0625 -10.5 4.957031 -10.734375 5.9375 -10.734375 C 7.09375 -10.734375 8.101562 -10.453125 8.96875 -9.890625 C 9.832031 -9.335938 10.460938 -8.550781 10.859375 -7.53125 L 9.203125 -7.53125 C 8.898438 -8.164062 8.472656 -8.65625 7.921875 -9 C 7.367188 -9.34375 6.707031 -9.515625 5.9375 -9.515625 C 5.195312 -9.515625 4.535156 -9.34375 3.953125 -9 C 3.367188 -8.65625 2.90625 -8.164062 2.5625 -7.53125 C 2.226562 -6.894531 2.0625 -6.15625 2.0625 -5.3125 C 2.0625 -4.46875 2.226562 -3.726562 2.5625 -3.09375 C 2.90625 -2.457031 3.367188 -1.96875 3.953125 -1.625 C 4.535156 -1.28125 5.195312 -1.109375 5.9375 -1.109375 C 6.707031 -1.109375 7.367188 -1.273438 7.921875 -1.609375 C 8.472656 -1.953125 8.898438 -2.445312 9.203125 -3.09375 L 10.859375 -3.09375 C 10.460938 -2.070312 9.832031 -1.285156 8.96875 -0.734375 C 8.101562 -0.179688 7.09375 0.09375 5.9375 0.09375 C 4.957031 0.09375 4.0625 -0.132812 3.25 -0.59375 C 2.445312 -1.0625 1.8125 -1.703125 1.34375 -2.515625 C 0.882812 -3.335938 0.65625 -4.269531 0.65625 -5.3125 Z M 0.65625 -5.3125 "/></g></g></g><g fill="#b4b4b4" fill-opacity="1"><g transform="translate(119.409283, 14.60477)"><g><path d="M 2.546875 -9.46875 L 2.546875 -5.921875 L 6.421875 -5.921875 L 6.421875 -4.78125 L 2.546875 -4.78125 L 2.546875 -1.140625 L 6.875 -1.140625 L 6.875 0 L 1.171875 0 L 1.171875 -10.609375 L 6.875 -10.609375 L 6.875 -9.46875 Z M 2.546875 -9.46875 "/></g></g></g><g fill="#b4b4b4" fill-opacity="1"><g transform="translate(127.204118, 14.60477)"><g><path d="M 4.53125 0.109375 C 3.832031 0.109375 3.207031 -0.015625 2.65625 -0.265625 C 2.101562 -0.515625 1.664062 -0.859375 1.34375 -1.296875 C 1.03125 -1.742188 0.867188 -2.253906 0.859375 -2.828125 L 2.34375 -2.828125 C 2.394531 -2.328125 2.597656 -1.90625 2.953125 -1.5625 C 3.316406 -1.226562 3.84375 -1.0625 4.53125 -1.0625 C 5.1875 -1.0625 5.703125 -1.222656 6.078125 -1.546875 C 6.460938 -1.878906 6.65625 -2.304688 6.65625 -2.828125 C 6.65625 -3.234375 6.539062 -3.5625 6.3125 -3.8125 C 6.09375 -4.070312 5.816406 -4.265625 5.484375 -4.390625 C 5.148438 -4.523438 4.703125 -4.664062 4.140625 -4.8125 C 3.441406 -5 2.878906 -5.179688 2.453125 -5.359375 C 2.035156 -5.546875 1.675781 -5.832031 1.375 -6.21875 C 1.070312 -6.613281 0.921875 -7.140625 0.921875 -7.796875 C 0.921875 -8.378906 1.066406 -8.890625 1.359375 -9.328125 C 1.660156 -9.773438 2.078125 -10.117188 2.609375 -10.359375 C 3.140625 -10.609375 3.75 -10.734375 4.4375 -10.734375 C 5.425781 -10.734375 6.238281 -10.484375 6.875 -9.984375 C 7.507812 -9.492188 7.867188 -8.835938 7.953125 -8.015625 L 6.4375 -8.015625 C 6.382812 -8.421875 6.171875 -8.773438 5.796875 -9.078125 C 5.421875 -9.390625 4.921875 -9.546875 4.296875 -9.546875 C 3.722656 -9.546875 3.253906 -9.394531 2.890625 -9.09375 C 2.523438 -8.800781 2.34375 -8.382812 2.34375 -7.84375 C 2.34375 -7.457031 2.453125 -7.140625 2.671875 -6.890625 C 2.890625 -6.648438 3.15625 -6.46875 3.46875 -6.34375 C 3.789062 -6.21875 4.238281 -6.070312 4.8125 -5.90625 C 5.519531 -5.71875 6.082031 -5.53125 6.5 -5.34375 C 6.925781 -5.15625 7.289062 -4.863281 7.59375 -4.46875 C 7.90625 -4.082031 8.0625 -3.554688 8.0625 -2.890625 C 8.0625 -2.367188 7.921875 -1.878906 7.640625 -1.421875 C 7.367188 -0.972656 6.960938 -0.601562 6.421875 -0.3125 C 5.890625 -0.03125 5.257812 0.109375 4.53125 0.109375 Z M 4.53125 0.109375 "/></g></g></g></g></g></svg>